<svg id="Capa_1" enable-background="new 0 0 512.118 512.118" height="512" viewBox="0 0 512.118 512.118" width="512" xmlns="http://www.w3.org/2000/svg"><g><path d="m511.537 232.929c-5.021-70.022-45.2-132.434-46.908-135.056l-7.553-11.597-174.821 94.783h-52.391l-174.822-94.783-7.552 11.597c-1.708 2.623-41.887 65.034-46.908 135.056l-.582 8.116 19.818 15.014-19.818 15.014.582 8.116c5.021 70.022 45.2 132.434 46.908 135.056l7.552 11.597 174.822-94.783h52.391l174.821 94.783 7.553-11.597c1.708-2.623 41.888-65.034 46.908-135.056l.581-8.116-19.818-15.014 19.817-15.014zm-314.474 38.13c1.921 14.972 6.254 28.739 9.87 38.307l-141.264 76.589c-10.454-19.04-29.495-58.488-34.413-100.924l38.244-28.972-38.244-28.972c4.918-42.44 23.961-81.891 34.413-100.924l141.263 76.589c-3.616 9.568-7.948 23.335-9.87 38.307h-76.003v30zm79.165 30h-40.337c-3.978-10.054-9.832-27.779-9.832-45s5.854-34.946 9.832-45h40.336c3.978 10.054 9.832 27.779 9.832 45 0 17.224-5.856 34.952-9.831 45zm204.634-16.028c-4.918 42.439-23.962 81.891-34.412 100.924l-141.264-76.589c3.616-9.568 7.948-23.335 9.87-38.307h76.003v-30h-76.003c-1.921-14.972-6.254-28.739-9.87-38.307l141.263-76.589c10.454 19.04 29.496 58.488 34.413 100.924l-38.243 28.972z"/></g></svg>